<?xml version="1.0" encoding="UTF-8"?>
<svg xmlns="http://www.w3.org/2000/svg" xmlns:xlink="http://www.w3.org/1999/xlink" width="2401" height="2401" viewBox="592 711 1277 1042">
    <path fill-rule="evenodd" fill="#A4C09A" fill-opacity="1" d="M 1862.738281 1229.898438 C 1867.011719 1247.410156 1862.398438 1265.730469 1850.539062 1279.339844 C 1849.109375 1280.988281 1847.578125 1282.558594 1845.96875 1284.03125 C 1851.148438 1297.890625 1853.828125 1312.550781 1853.828125 1327.441406 C 1853.828125 1348.769531 1848.449219 1369.410156 1838.179688 1387.871094 C 1848.238281 1400.691406 1853.828125 1416.546875 1853.828125 1433.109375 C 1853.828125 1452.660156 1846.050781 1471.125 1832.5 1484.796875 C 1837.308594 1510.246094 1829.941406 1535.953125 1820.128906 1559.636719 C 1795.851562 1618.320312 1756.53125 1675.335938 1703.691406 1711.621094 C 1703.589844 1711.6875 1703.488281 1711.757812 1703.390625 1711.824219 C 1703.03125 1712.074219 1702.660156 1712.324219 1702.289062 1712.570312 C 1666.160156 1737.019531 1625.398438 1750.578125 1581.640625 1750.578125 L 912.09375 1750.578125 C 797.414062 1750.578125 714.527344 1658.527344 673.601562 1559.636719 C 663.800781 1535.953125 656.429688 1510.242188 661.238281 1484.792969 C 647.648438 1471.078125 639.910156 1452.640625 639.910156 1433.113281 C 639.910156 1416.546875 645.492188 1400.691406 655.550781 1387.871094 C 645.285156 1369.410156 639.910156 1348.769531 639.910156 1327.441406 C 639.910156 1304.070312 646.363281 1281.621094 658.492188 1262 C 641.4375 1245.019531 631.667969 1222.109375 631.664062 1197.730469 C 631.664062 1181.148438 636.179688 1165.109375 644.652344 1151.078125 C 630.785156 1128.011719 629.027344 1100.929688 634.761719 1074.449219 C 652.601562 992.019531 699.027344 913.53125 760.335938 855.921875 C 830.191406 790.269531 918.714844 751.710938 1015.109375 751.710938 L 1478.628906 751.710938 C 1575.019531 751.710938 1663.539062 790.269531 1733.398438 855.921875 C 1794.710938 913.53125 1841.140625 992.019531 1858.980469 1074.449219 C 1864.710938 1100.929688 1862.949219 1128.011719 1849.089844 1151.078125 C 1857.558594 1165.101562 1862.070312 1181.148438 1862.070312 1197.71875 C 1862.070312 1203.621094 1861.980469 1209.519531 1862.050781 1215.421875 C 1862.101562 1220.230469 1862.179688 1225.109375 1862.738281 1229.898438 "/>
    <path fill-rule="evenodd" fill="rgb(0%, 0%, 0%)" fill-opacity="1" d="M 628.179688 1206.609375 C 627.058594 1205.78125 625.957031 1204.929688 624.878906 1204.050781 C 607.015625 1189.410156 596.582031 1167.910156 596.582031 1144.769531 C 596.582031 1127.761719 602.210938 1111.5 612.574219 1098.121094 C 612.441406 1097.949219 612.308594 1097.78125 612.175781 1097.601562 C 595.894531 1076.308594 593.835938 1050.011719 599.351562 1024.511719 C 616.578125 944.921875 661.5625 868.980469 720.75 813.359375 C 787.960938 750.199219 872.992188 713.03125 965.753906 713.03125 L 1429.269531 713.03125 C 1522.03125 713.03125 1607.058594 750.199219 1674.269531 813.359375 C 1733.449219 868.980469 1778.441406 944.921875 1795.660156 1024.511719 C 1801.179688 1050.011719 1799.121094 1076.308594 1782.839844 1097.601562 C 1782.710938 1097.78125 1782.578125 1097.949219 1782.441406 1098.121094 C 1792.800781 1111.480469 1798.429688 1127.761719 1798.441406 1144.761719 C 1798.441406 1150.71875 1798.339844 1156.671875 1798.410156 1162.621094 C 1798.480469 1168.261719 1798.601562 1173.96875 1799.320312 1179.570312 C 1802.839844 1192.890625 1799.460938 1206.628906 1790.421875 1217.011719 C 1787.171875 1220.738281 1783.328125 1223.890625 1779.019531 1226.269531 C 1786.359375 1241.289062 1790.191406 1257.699219 1790.191406 1274.480469 C 1790.191406 1296.839844 1783.539062 1318.21875 1771.019531 1336.609375 C 1783.171875 1347.800781 1790.191406 1363.46875 1790.191406 1380.148438 C 1790.191406 1398.570312 1781.628906 1415.6875 1767.230469 1426.914062 C 1774.929688 1451.71875 1767.199219 1477.996094 1757.578125 1501.21875 C 1734.378906 1557.285156 1696.75 1612.214844 1646.25 1646.894531 C 1646.160156 1646.953125 1646.070312 1647.015625 1645.980469 1647.074219 C 1645.628906 1647.3125 1645.28125 1647.550781 1644.929688 1647.789062 C 1611.160156 1670.640625 1573.199219 1683.34375 1532.28125 1683.34375 L 862.734375 1683.34375 C 754.15625 1683.34375 676.054688 1594.539062 637.433594 1501.21875 C 627.820312 1477.996094 620.082031 1451.714844 627.789062 1426.910156 C 627.183594 1426.4375 626.585938 1425.949219 625.996094 1425.453125 C 612.589844 1414.140625 604.824219 1397.71875 604.824219 1380.148438 C 604.824219 1363.46875 611.84375 1347.800781 624 1336.609375 C 611.472656 1318.21875 604.824219 1296.839844 604.824219 1274.480469 C 604.824219 1249.628906 613.039062 1226.101562 628.179688 1206.609375 "/>
    <path fill-rule="evenodd" fill="rgb(88.671875%, 69.726562%, 53.709412%)" fill-opacity="1" d="M 1197.511719 754.398438 L 965.753906 754.398438 C 793.542969 754.398438 668.832031 896.511719 639.785156 1028.339844 C 630.550781 1070.269531 656.59375 1085.101562 703.5625 1085.101562 L 1691.460938 1085.101562 C 1738.429688 1085.101562 1764.46875 1070.269531 1755.230469 1028.339844 C 1726.191406 896.511719 1601.480469 754.398438 1429.269531 754.398438 L 1197.511719 754.398438 "/>
    <path fill-rule="evenodd" fill="rgb(69.334412%, 46.263123%, 24.705505%)" fill-opacity="1" d="M 1160.210938 754.398438 L 965.753906 754.398438 C 793.542969 754.398438 668.832031 896.511719 639.785156 1028.339844 C 630.550781 1070.269531 656.59375 1085.101562 703.5625 1085.101562 L 1691.460938 1085.101562 C 1719.941406 1085.101562 1740.730469 1079.640625 1750.621094 1065.988281 L 1749.828125 1065.488281 C 1749.828125 1065.488281 895.949219 1065.488281 852.863281 1065.488281 C 809.777344 1065.488281 774.160156 1008.488281 807.480469 937.390625 C 873.757812 795.941406 1020.570312 778.839844 1160.210938 754.398438 "/>
    <path fill-rule="evenodd" fill="rgb(82.421875%, 37.255859%, 8.616638%)" fill-opacity="1" d="M 690.234375 1208.070312 C 664.195312 1219.011719 646.195312 1241.730469 646.195312 1267.828125 C 646.195312 1304.519531 681.742188 1334.53125 725.183594 1334.53125 L 1669.828125 1334.53125 C 1713.28125 1334.53125 1748.820312 1304.519531 1748.820312 1267.828125 C 1748.820312 1242.800781 1732.261719 1220.871094 1707.941406 1209.46875 C 1705.371094 1211.660156 1702.679688 1214.21875 1700.550781 1215.988281 C 1691.328125 1223.640625 1681.691406 1230.210938 1671.210938 1236.011719 C 1633.089844 1257.050781 1585.460938 1267.609375 1542.800781 1273.949219 C 1482.421875 1282.921875 1415.988281 1275.039062 1356.078125 1265.261719 C 1286.890625 1253.960938 1218.390625 1238.5 1149.320312 1226.398438 C 1098.339844 1217.46875 1046.558594 1210.101562 994.792969 1208.070312 L 690.234375 1208.070312 "/>
    <path fill-rule="evenodd" fill="rgb(58.396912%, 19.213867%, 11.767578%)" fill-opacity="1" d="M 728.09375 1208.070312 C 715.753906 1219.839844 708.238281 1235.300781 708.238281 1252.160156 C 708.238281 1288.851562 743.785156 1318.859375 787.226562 1318.859375 L 1720.550781 1318.859375 C 1737.808594 1306.601562 1748.820312 1288.25 1748.820312 1267.828125 C 1748.820312 1246.378906 1736.671875 1227.21875 1717.890625 1215 C 1714.421875 1212.710938 1711.039062 1210.898438 1707.949219 1209.460938 C 1705.378906 1211.660156 1702.679688 1214.21875 1700.550781 1215.988281 C 1691.328125 1223.640625 1681.691406 1230.210938 1671.210938 1236.011719 C 1633.089844 1257.050781 1585.460938 1267.609375 1542.800781 1273.949219 C 1482.421875 1282.921875 1415.988281 1275.039062 1356.078125 1265.261719 C 1286.890625 1253.960938 1218.390625 1238.5 1149.320312 1226.398438 C 1098.339844 1217.46875 1046.558594 1210.101562 994.792969 1208.070312 L 728.09375 1208.070312 "/>
    <path fill-rule="evenodd" fill="rgb(88.671875%, 69.726562%, 53.709412%)" fill-opacity="1" d="M 677.519531 1425.769531 C 660.835938 1437.085938 664.128906 1457.535156 675.660156 1485.398438 C 707.21875 1561.660156 771.601562 1641.972656 862.734375 1641.972656 L 1532.28125 1641.972656 C 1623.421875 1641.972656 1687.800781 1561.660156 1719.359375 1485.398438 C 1730.890625 1457.535156 1734.179688 1437.085938 1717.5 1425.769531 L 1371.589844 1425.769531 C 1352.539062 1425.769531 1328.941406 1442.035156 1322.890625 1460.175781 C 1313.230469 1489.144531 1291.300781 1530.03125 1256.121094 1530.03125 C 1248.851562 1530.03125 1241.769531 1528.300781 1235.378906 1524.820312 C 1212 1512.105469 1206.898438 1482.59375 1206.898438 1458.410156 C 1206.898438 1451.527344 1205.300781 1433.652344 1201.289062 1425.769531 L 1163.058594 1425.769531 C 1161.140625 1425.769531 1159 1425.96875 1157.359375 1427.066406 C 1145.191406 1435.234375 1136.5 1492.027344 1133.601562 1506.347656 C 1126.140625 1543.273438 1112.558594 1590.453125 1064.921875 1582.511719 C 1046.480469 1579.4375 1037.078125 1562.433594 1030.410156 1546.894531 C 1024.53125 1533.210938 1019.839844 1518.675781 1015.199219 1504.523438 C 1010.691406 1490.792969 1006.269531 1476.140625 1000.578125 1462.882812 C 998.007812 1456.871094 987.132812 1429.386719 981.800781 1426.128906 C 981.273438 1425.804688 979.777344 1425.769531 979.222656 1425.769531 L 902.300781 1425.769531 C 900.265625 1431.628906 898.917969 1440.929688 898.449219 1445.269531 C 894.324219 1483.429688 861.804688 1514.523438 822.964844 1514.523438 C 811.238281 1514.523438 800.140625 1511.222656 790.4375 1504.609375 C 768.976562 1489.980469 761.390625 1465.472656 753.828125 1442.160156 C 752.859375 1439.171875 749.238281 1428.335938 746.742188 1426.070312 C 745.980469 1425.8125 744.382812 1425.769531 743.6875 1425.769531 L 677.519531 1425.769531 "/>
    <path fill-rule="evenodd" fill="rgb(69.334412%, 46.263123%, 24.705505%)" fill-opacity="1" d="M 677.519531 1425.769531 C 660.835938 1437.085938 664.128906 1457.535156 675.660156 1485.398438 C 707.21875 1561.660156 771.601562 1641.972656 862.734375 1641.972656 L 1532.28125 1641.972656 C 1566.21875 1641.972656 1596.441406 1630.835938 1622.640625 1612.921875 L 902.519531 1612.921875 C 826.871094 1612.921875 814.636719 1550.476562 809.839844 1513.074219 C 802.960938 1511.515625 796.433594 1508.695312 790.4375 1504.609375 C 768.976562 1489.980469 761.390625 1465.472656 753.828125 1442.160156 C 752.859375 1439.171875 749.238281 1428.335938 746.742188 1426.070312 C 745.980469 1425.8125 744.382812 1425.769531 743.6875 1425.769531 L 677.519531 1425.769531 "/>
    <path fill-rule="evenodd" fill="rgb(49.414062%, 70.896912%, 29.80957%)" fill-opacity="1" d="M 1197.511719 1361.921875 L 665.152344 1361.921875 C 654.726562 1361.921875 646.195312 1370.121094 646.195312 1380.148438 C 646.195312 1390.179688 654.726562 1398.390625 665.152344 1398.390625 L 743.6875 1398.390625 C 765.519531 1398.390625 772.988281 1412.453125 779.878906 1433.710938 C 786.773438 1454.964844 795.390625 1487.136719 822.964844 1487.136719 C 850.539062 1487.136719 868.925781 1463.582031 871.222656 1442.328125 C 873.519531 1421.070312 879.839844 1398.390625 894.777344 1398.390625 L 979.222656 1398.390625 C 1004.5 1398.390625 1011.96875 1419.921875 1025.761719 1452.09375 C 1039.539062 1484.265625 1055.628906 1553.199219 1069.421875 1555.496094 C 1083.210938 1557.796875 1095.839844 1554.921875 1106.761719 1500.921875 C 1117.671875 1446.921875 1122.839844 1398.390625 1163.058594 1398.390625 L 1206.140625 1398.390625 C 1227.398438 1398.390625 1234.289062 1434.855469 1234.289062 1458.410156 C 1234.289062 1481.964844 1240.03125 1502.644531 1256.121094 1502.644531 C 1272.210938 1502.644531 1288.289062 1477.367188 1296.910156 1451.515625 C 1305.53125 1425.664062 1337.121094 1398.390625 1371.589844 1398.390625 L 1729.859375 1398.390625 C 1740.289062 1398.390625 1748.820312 1390.179688 1748.820312 1380.148438 C 1748.820312 1370.121094 1740.289062 1361.921875 1729.859375 1361.921875 L 1197.511719 1361.921875 "/>
    <path fill-rule="evenodd" fill="rgb(27.050781%, 48.631287%, 25.097656%)" fill-opacity="1" d="M 646.195312 1380.148438 C 646.195312 1380.148438 654.484375 1392.621094 674.160156 1392.621094 C 693.839844 1392.621094 728.019531 1392.628906 743.097656 1392.628906 C 758.179688 1392.628906 784.460938 1396.640625 793.652344 1419.621094 C 802.84375 1442.601562 822.621094 1488.226562 856.535156 1472.738281 C 848.210938 1481.265625 836.734375 1487.136719 822.964844 1487.136719 C 795.390625 1487.136719 786.773438 1454.964844 779.878906 1433.710938 C 772.988281 1412.453125 765.519531 1398.390625 743.6875 1398.390625 L 665.152344 1398.390625 C 654.726562 1398.390625 646.195312 1390.179688 646.195312 1380.148438 Z M 986.585938 1399.078125 C 1006.128906 1403.003906 1013.410156 1423.285156 1025.761719 1452.09375 C 1039.539062 1484.265625 1055.628906 1553.199219 1069.421875 1555.496094 C 1081.53125 1557.515625 1092.761719 1555.535156 1102.710938 1518.382812 C 1095.808594 1529.523438 1075.140625 1524.175781 1069.96875 1511.253906 C 1064.800781 1498.328125 1057.339844 1477.359375 1048.140625 1448.0625 C 1038.949219 1418.761719 1019.421875 1399.078125 986.589844 1399.078125 Z M 1210.488281 1398.941406 C 1228.351562 1403.558594 1234.289062 1436.546875 1234.289062 1458.410156 C 1234.289062 1481.964844 1240.03125 1502.644531 1256.121094 1502.644531 C 1266.519531 1502.644531 1276.910156 1492.082031 1285.289062 1477.632812 C 1275.128906 1487.949219 1252.949219 1483.675781 1250.648438 1477.070312 C 1248.351562 1470.460938 1245.480469 1447.195312 1243.46875 1427.375 C 1241.449219 1407.554688 1229.101562 1398.929688 1210.5 1398.929688 L 1210.488281 1398.941406 "/>
    <path fill-rule="evenodd" fill="rgb(100%, 96.875%, 75.78125%)" fill-opacity="1" d="M 675.292969 1108.851562 L 1719.71875 1108.851562 C 1740.261719 1108.851562 1757.058594 1125.011719 1757.058594 1144.769531 C 1757.058594 1144.769531 1757.070312 1184.671875 1759.21875 1189.839844 C 1759.21875 1189.839844 1724.320312 1180.679688 1705.078125 1180.679688 C 1685.828125 1180.679688 1681.820312 1225.609375 1538.78125 1246.859375 C 1395.730469 1268.121094 1186.050781 1188.03125 995.324219 1180.679688 L 675.292969 1180.679688 C 654.757812 1180.679688 637.953125 1164.519531 637.953125 1144.769531 C 637.953125 1125.011719 654.757812 1108.851562 675.292969 1108.851562 "/>
    <path fill-rule="evenodd" fill="rgb(95.3125%, 80.859375%, 43.530273%)" fill-opacity="1" d="M 1702.289062 1181.011719 C 1685.089844 1185.109375 1674.679688 1226.671875 1538.78125 1246.859375 C 1395.730469 1268.121094 1186.050781 1188.03125 995.324219 1180.679688 L 675.292969 1180.679688 C 654.757812 1180.679688 637.953125 1164.519531 637.953125 1144.769531 C 637.953125 1131.691406 645.320312 1120.191406 656.257812 1113.910156 C 656.230469 1114.070312 651.199219 1141.300781 656.929688 1146.160156 C 662.675781 1151.050781 652.046875 1161.390625 765.792969 1161.390625 C 879.539062 1161.390625 992.710938 1161.390625 1053.03125 1166.558594 C 1113.351562 1171.730469 1223.070312 1188.390625 1281.671875 1202.179688 C 1340.269531 1215.960938 1452.859375 1234.351562 1534.441406 1221.128906 C 1616.011719 1207.921875 1672.191406 1178.128906 1702.28125 1181.011719 L 1702.289062 1181.011719 "/>
    <path fill-rule="evenodd" fill="rgb(69.334412%, 46.263123%, 24.705505%)" fill-opacity="1" d="M 964.960938 901.480469 C 960.800781 901.480469 957.429688 904.851562 957.429688 909.011719 C 957.429688 913.171875 960.800781 916.539062 964.960938 916.539062 C 969.117188 916.539062 972.484375 913.171875 972.484375 909.011719 C 972.484375 904.851562 969.117188 901.480469 964.960938 901.480469 Z M 1226.28125 974.921875 C 1220.828125 974.921875 1216.421875 979.339844 1216.421875 984.789062 C 1216.421875 990.230469 1220.828125 994.648438 1226.28125 994.648438 C 1231.730469 994.648438 1236.148438 990.230469 1236.148438 984.789062 C 1236.148438 979.339844 1231.730469 974.921875 1226.28125 974.921875 Z M 1414.128906 943.300781 C 1409.980469 943.300781 1406.609375 946.671875 1406.609375 950.828125 C 1406.609375 954.988281 1409.980469 958.359375 1414.128906 958.359375 C 1418.289062 958.359375 1421.660156 954.988281 1421.660156 950.828125 C 1421.660156 946.671875 1418.289062 943.300781 1414.128906 943.300781 Z M 1341.75 896.539062 C 1329.820312 896.539062 1320.140625 906.210938 1320.140625 918.148438 C 1320.140625 930.078125 1329.820312 939.75 1341.75 939.75 C 1353.679688 939.75 1363.359375 930.078125 1363.359375 918.148438 C 1363.359375 906.210938 1353.679688 896.539062 1341.75 896.539062 Z M 1252.679688 899.519531 C 1240.738281 899.519531 1231.070312 909.191406 1231.070312 921.128906 C 1231.070312 933.058594 1240.738281 942.730469 1252.679688 942.730469 C 1264.609375 942.730469 1274.28125 933.058594 1274.28125 921.128906 C 1274.28125 909.191406 1264.609375 899.519531 1252.679688 899.519531 Z M 1032.058594 940.761719 C 1020.128906 940.761719 1010.449219 950.441406 1010.449219 962.371094 C 1010.449219 974.300781 1020.128906 983.980469 1032.058594 983.980469 C 1043.988281 983.980469 1053.671875 974.300781 1053.671875 962.371094 C 1053.671875 950.441406 1043.988281 940.761719 1032.058594 940.761719 Z M 1149.238281 861.550781 C 1137.308594 861.550781 1127.640625 871.21875 1127.640625 883.160156 C 1127.640625 895.089844 1137.308594 904.761719 1149.238281 904.761719 C 1161.179688 904.761719 1170.851562 895.089844 1170.851562 883.160156 C 1170.851562 871.21875 1161.179688 861.550781 1149.238281 861.550781 Z M 1235.648438 830.128906 C 1226.980469 830.128906 1219.941406 837.171875 1219.941406 845.839844 C 1219.941406 854.519531 1226.980469 861.550781 1235.648438 861.550781 C 1244.328125 861.550781 1251.359375 854.519531 1251.359375 845.839844 C 1251.359375 837.171875 1244.328125 830.128906 1235.648438 830.128906 Z M 1138.769531 953.210938 C 1130.089844 953.210938 1123.058594 960.238281 1123.058594 968.921875 C 1123.058594 977.601562 1130.089844 984.628906 1138.769531 984.628906 C 1147.441406 984.628906 1154.480469 977.601562 1154.480469 968.921875 C 1154.480469 960.238281 1147.441406 953.210938 1138.769531 953.210938 Z M 1053.011719 855.660156 C 1044.328125 855.660156 1037.300781 862.699219 1037.300781 871.371094 C 1037.300781 880.050781 1044.328125 887.078125 1053.011719 887.078125 C 1061.679688 887.078125 1068.71875 880.050781 1068.71875 871.371094 C 1068.71875 862.699219 1061.679688 855.660156 1053.011719 855.660156 Z M 1304.390625 974.148438 C 1300.230469 974.148438 1296.859375 977.519531 1296.859375 981.679688 C 1296.859375 985.839844 1300.230469 989.210938 1304.390625 989.210938 C 1308.550781 989.210938 1311.921875 985.839844 1311.921875 981.679688 C 1311.921875 977.519531 1308.550781 974.148438 1304.390625 974.148438 Z M 1308.429688 851.390625 C 1304.269531 851.390625 1300.898438 854.761719 1300.898438 858.921875 C 1300.898438 863.070312 1304.269531 866.441406 1308.429688 866.441406 C 1312.589844 866.441406 1315.960938 863.070312 1315.960938 858.921875 C 1315.960938 854.761719 1312.589844 851.390625 1308.429688 851.390625 "/>
    <path fill-rule="evenodd" fill="rgb(100%, 96.875%, 75.78125%)" fill-opacity="1" d="M 972.425781 890.710938 C 968.269531 890.710938 964.898438 894.078125 964.898438 898.238281 C 964.898438 902.398438 968.269531 905.769531 972.425781 905.769531 C 976.585938 905.769531 979.953125 902.398438 979.953125 898.238281 C 979.953125 894.078125 976.585938 890.710938 972.425781 890.710938 Z M 1233.75 964.148438 C 1228.300781 964.148438 1223.890625 968.558594 1223.890625 974.011719 C 1223.890625 979.460938 1228.300781 983.878906 1233.75 983.878906 C 1239.199219 983.878906 1243.621094 979.460938 1243.621094 974.011719 C 1243.621094 968.558594 1239.199219 964.148438 1233.75 964.148438 Z M 1421.601562 932.53125 C 1417.441406 932.53125 1414.070312 935.898438 1414.070312 940.058594 C 1414.070312 944.21875 1417.441406 947.589844 1421.601562 947.589844 C 1425.761719 947.589844 1429.128906 944.21875 1429.128906 940.058594 C 1429.128906 935.898438 1425.761719 932.53125 1421.601562 932.53125 Z M 1349.21875 885.769531 C 1337.28125 885.769531 1327.609375 895.441406 1327.609375 907.371094 C 1327.609375 919.308594 1337.28125 928.980469 1349.21875 928.980469 C 1361.148438 928.980469 1370.820312 919.308594 1370.820312 907.371094 C 1370.820312 895.441406 1361.148438 885.769531 1349.21875 885.769531 Z M 1260.148438 888.75 C 1248.210938 888.75 1238.539062 898.421875 1238.539062 910.351562 C 1238.539062 922.289062 1248.210938 931.960938 1260.148438 931.960938 C 1272.078125 931.960938 1281.75 922.289062 1281.75 910.351562 C 1281.75 898.421875 1272.078125 888.75 1260.148438 888.75 Z M 1039.53125 929.988281 C 1027.601562 929.988281 1017.921875 939.660156 1017.921875 951.601562 C 1017.921875 963.53125 1027.601562 973.199219 1039.53125 973.199219 C 1051.460938 973.199219 1061.140625 963.53125 1061.140625 951.601562 C 1061.140625 939.660156 1051.460938 929.988281 1039.53125 929.988281 Z M 1156.710938 850.78125 C 1144.78125 850.78125 1135.109375 860.449219 1135.109375 872.378906 C 1135.109375 884.320312 1144.78125 893.988281 1156.710938 893.988281 C 1168.648438 893.988281 1178.320312 884.320312 1178.320312 872.378906 C 1178.320312 860.449219 1168.648438 850.78125 1156.710938 850.78125 Z M 1243.121094 819.359375 C 1234.449219 819.359375 1227.410156 826.390625 1227.410156 835.070312 C 1227.410156 843.75 1234.449219 850.78125 1243.121094 850.78125 C 1251.800781 850.78125 1258.828125 843.75 1258.828125 835.070312 C 1258.828125 826.390625 1251.800781 819.359375 1243.121094 819.359375 Z M 1146.238281 942.429688 C 1137.558594 942.429688 1130.53125 949.46875 1130.53125 958.140625 C 1130.53125 966.820312 1137.558594 973.851562 1146.238281 973.851562 C 1154.910156 973.851562 1161.949219 966.820312 1161.949219 958.140625 C 1161.949219 949.46875 1154.910156 942.429688 1146.238281 942.429688 Z M 1060.480469 844.890625 C 1051.800781 844.890625 1044.769531 851.921875 1044.769531 860.601562 C 1044.769531 869.28125 1051.800781 876.308594 1060.480469 876.308594 C 1069.148438 876.308594 1076.191406 869.28125 1076.191406 860.601562 C 1076.191406 851.921875 1069.148438 844.890625 1060.480469 844.890625 Z M 1311.859375 963.378906 C 1307.699219 963.378906 1304.328125 966.75 1304.328125 970.910156 C 1304.328125 975.070312 1307.699219 978.441406 1311.859375 978.441406 C 1316.019531 978.441406 1319.390625 975.070312 1319.390625 970.910156 C 1319.390625 966.75 1316.019531 963.378906 1311.859375 963.378906 Z M 1315.898438 840.609375 C 1311.738281 840.609375 1308.371094 843.980469 1308.371094 848.140625 C 1308.371094 852.300781 1311.738281 855.671875 1315.898438 855.671875 C 1320.058594 855.671875 1323.429688 852.300781 1323.429688 848.140625 C 1323.429688 843.980469 1320.058594 840.609375 1315.898438 840.609375 "/>
</svg>
